<?xml version="1.0" encoding="UTF-8" standalone="no"?>
<!DOCTYPE svg PUBLIC "-//W3C//DTD SVG 1.1//EN" "http://www.w3.org/Graphics/SVG/1.1/DTD/svg11.dtd">
<svg width="394.00" height="166.00" viewBox="0.00 0.00 394.00 166.00" xmlns="http://www.w3.org/2000/svg" xmlns:xlink="http://www.w3.org/1999/xlink">
<g stroke-linecap="round" transform="translate(-10.00, -12.00)" id="Layer_2">
<path d="M13.91,45.92 L13.91,45.92" fill="none" stroke="rgb(255, 255, 255)" stroke-width="3.00" stroke-opacity="1.00" stroke-linejoin="round"/>
<path d="M13.72,96.21 C13.72,96.21 13.72,94.59 13.72,94.59 C13.72,94.59 13.34,90.21 13.34,90.21 C13.34,90.21 14.10,69.63 14.10,69.63 C14.10,69.63 14.29,66.78 14.29,66.78 C14.29,66.78 14.48,62.78 14.48,62.78 C14.48,62.78 14.86,58.58 14.86,58.58 C14.86,58.58 15.05,55.54 15.05,55.54 C15.05,55.54 15.24,52.30 15.24,52.30 C15.24,52.30 15.43,46.96 15.43,46.96 C15.43,46.96 15.62,43.82 15.62,43.82" fill="none" stroke="rgb(0, 0, 0)" stroke-width="5.90" stroke-opacity="1.00" stroke-linejoin="round"/>
<path d="M16.00,50.20 C16.00,50.20 17.72,47.73 17.72,47.73 C17.72,47.73 20.67,45.72 20.67,45.72 C20.67,45.72 23.72,44.58 23.72,44.58 C23.72,44.58 31.72,43.82 31.72,43.82 C31.72,43.82 33.25,44.39 33.25,44.39 C33.25,44.39 34.20,44.77 34.20,44.77 C34.20,44.77 35.15,45.15 35.15,45.15 C35.15,45.15 37.91,47.53 37.91,47.53 C37.91,47.53 38.48,48.49 38.48,48.49 C38.48,48.49 39.44,53.25 39.44,53.25 C39.44,53.25 39.44,59.54 39.44,59.54 C39.44,59.54 39.25,60.87 39.25,60.87 C39.25,60.87 38.87,63.16 38.87,63.16 C38.87,63.16 38.48,64.68 38.48,64.68 C38.48,64.68 38.29,65.82 38.29,65.82 C38.29,65.82 37.72,66.97 37.72,66.97 C37.72,66.97 37.53,68.30 37.53,68.30 C37.53,68.30 36.96,69.44 36.96,69.44 C36.96,69.44 36.39,70.40 36.39,70.40 C36.39,70.40 34.87,73.83 34.87,73.83 C34.87,73.83 34.29,74.78 34.29,74.78 C34.29,74.78 33.34,75.92 33.34,75.92 C33.34,75.92 32.29,76.59 32.29,76.59 C32.29,76.59 31.34,76.97 31.34,76.97 C31.34,76.97 29.05,77.54 29.05,77.54 C29.05,77.54 27.15,77.73 27.15,77.73 C27.15,77.73 22.58,77.92 22.58,77.92 C22.58,77.92 21.24,77.35 21.24,77.35 C21.24,77.35 20.29,76.78 20.29,76.78 C20.29,76.78 19.43,75.92 19.43,75.92 C19.43,75.92 18.86,74.78 18.86,74.78 C18.86,74.78 18.29,73.83 18.29,73.83 C18.29,73.83 17.53,71.73 17.53,71.73 C17.53,71.73 16.96,70.30 16.96,70.30" fill="none" stroke="rgb(0, 0, 0)" stroke-width="5.90" stroke-opacity="1.00" stroke-linejoin="round"/>
<path d="M56.20,30.29 C56.20,30.29 56.20,31.15 56.20,31.15 C56.77,32.00 54.09,42.80 54.01,43.06 C53.73,44.11 53.75,52.79 53.44,53.92 C52.14,58.83 53.93,64.97 53.92,65.06 C53.92,65.06 54.30,66.02 54.30,66.02 C54.30,66.02 54.87,66.97 54.87,66.97 C54.87,66.97 56.58,72.49 56.58,72.49 C56.58,72.49 57.16,73.45 57.16,73.45 C57.16,73.45 57.54,74.59 57.54,74.59 C57.54,74.59 59.06,76.87 59.06,76.87 C59.06,76.87 60.11,77.92 60.11,77.92 C60.11,77.92 61.25,78.49 61.25,78.49 C61.25,78.49 64.87,78.11 64.87,78.11 C64.87,78.11 65.82,77.54 65.82,77.54 C65.82,77.54 68.02,75.83 68.02,75.83" fill="none" stroke="rgb(0, 0, 0)" stroke-width="5.90" stroke-opacity="1.00" stroke-linejoin="round"/>
<path d="M78.68,45.92 C78.65,48.27 78.88,54.96 78.68,55.92 C78.64,56.11 77.80,60.21 77.73,64.49 C77.72,65.09 78.44,67.11 78.59,67.16 C78.59,67.16 79.07,68.49 79.07,68.49 C79.07,68.49 79.83,70.21 79.83,70.21 C79.83,70.21 82.78,75.45 82.78,75.45 C82.78,75.45 83.92,76.59 83.92,76.59 C83.92,76.59 85.64,77.35 85.64,77.35 C85.64,77.35 90.78,77.73 90.78,77.73 C90.78,77.73 92.50,77.16 92.50,77.16 C92.50,77.16 93.83,76.59 93.83,76.59 C93.83,76.59 99.17,73.25 99.17,73.25 C99.23,73.12 101.95,67.53 102.12,66.68 C102.49,64.84 105.17,51.99 105.17,47.53 C105.27,47.36 104.60,48.92 104.02,50.20 C102.92,52.68 104.65,64.50 104.79,66.49 C105.43,77.53 106.15,78.80 106.12,79.16 C106.12,79.16 106.50,80.30 106.50,80.30 C106.50,80.30 106.69,80.40 106.69,80.40" fill="none" stroke="rgb(0, 0, 0)" stroke-width="5.90" stroke-opacity="1.00" stroke-linejoin="round"/>
<path d="M143.27,49.54 C143.27,49.54 143.27,49.06 143.27,49.06 C143.27,49.06 141.84,48.58 141.84,48.58 C141.84,48.58 139.75,47.82 139.75,47.82 C136.20,46.38 131.97,47.43 131.55,47.44 C131.35,47.67 129.14,49.15 125.08,49.15 C124.36,49.17 119.48,53.04 118.98,53.25 C118.98,53.25 118.22,57.63 118.22,57.63 C118.48,57.73 119.39,58.79 121.84,60.01 C121.90,60.05 121.96,60.11 122.03,60.20 C122.07,60.20 125.65,61.21 125.74,61.25 C127.05,61.92 138.32,62.12 138.79,62.11 C138.79,62.11 139.75,62.49 139.75,62.49 C139.75,62.49 140.89,63.25 140.89,63.25 C140.89,63.25 142.60,64.59 142.60,64.59 C142.60,64.59 143.65,65.25 143.65,65.25 C143.65,65.25 144.89,66.49 144.89,66.49 C144.89,66.49 145.94,67.92 145.94,67.92 C145.94,67.92 146.51,69.63 146.51,69.63 C146.51,69.63 147.27,71.16 147.27,71.16 C147.27,71.16 147.65,72.11 147.65,72.11 C147.88,75.76 147.46,76.19 147.37,76.30 C147.31,76.38 145.73,77.38 145.65,77.35 C145.65,77.35 143.94,77.92 143.94,77.92 C143.94,77.92 135.55,79.83 135.55,79.83 C135.55,79.83 134.22,80.02 134.22,80.02 C134.22,80.02 133.08,80.21 133.08,80.21 C133.08,80.21 128.51,80.40 128.51,80.40 C128.51,80.40 126.60,79.83 126.60,79.83 C126.60,79.83 125.27,79.26 125.27,79.26 C125.27,79.26 123.74,78.49 123.74,78.49 C123.74,78.49 122.22,77.54 122.22,77.54 C122.22,77.54 120.88,76.30 120.88,76.30 C120.88,76.30 119.36,75.06 119.36,75.06 C119.36,75.06 119.07,74.68 119.07,74.68" fill="none" stroke="rgb(0, 0, 0)" stroke-width="5.90" stroke-opacity="1.00" stroke-linejoin="round"/>
<path d="M162.89,21.15 C162.91,21.52 162.70,34.63 162.70,42.05 C162.75,48.63 163.65,57.35 163.66,57.44 C164.00,67.82 161.98,84.69 161.85,84.78 C161.77,84.83 161.74,85.04 161.75,85.26 C161.75,85.26 163.56,84.31 163.56,84.31 C163.56,84.31 165.47,81.92 165.47,81.92 C165.47,81.92 167.18,80.97 167.18,80.97 C168.38,80.01 173.56,79.16 175.28,78.68 C176.45,78.37 187.60,79.75 188.90,80.02 C190.02,80.24 191.95,80.60 194.71,80.59" fill="none" stroke="rgb(0, 0, 0)" stroke-width="5.90" stroke-opacity="1.00" stroke-linejoin="round"/>
<path d="M207.86,47.82 C207.86,47.82 207.67,47.92 207.67,47.92 C207.69,48.21 207.20,74.09 207.10,75.45 C206.51,79.82 206.32,80.93 206.33,87.07" fill="none" stroke="rgb(0, 0, 0)" stroke-width="5.90" stroke-opacity="1.00" stroke-linejoin="round"/>
<path d="M206.52,21.72 C206.52,21.72 206.05,21.72 206.05,21.72 C206.05,21.72 197.85,31.34 197.85,31.34 C197.85,31.34 197.66,34.77 197.66,34.77 C198.34,36.28 200.88,37.96 202.62,38.48 C203.88,38.86 205.54,38.86 207.57,38.48 C208.06,38.38 209.37,36.98 209.95,36.10 C210.01,36.01 211.10,32.76 211.29,31.82 C212.21,26.94 208.02,24.33 207.57,23.81 C207.57,23.81 204.81,23.62 204.81,23.62" fill="none" stroke="rgb(0, 0, 0)" stroke-width="5.90" stroke-opacity="1.00" stroke-linejoin="round"/>
<path d="M225.19,15.24 C225.19,18.97 225.55,32.37 225.77,33.06 C226.34,34.93 226.06,58.00 225.19,63.35 C224.91,65.40 224.36,70.45 224.24,70.59 C224.24,70.59 223.67,79.73 223.67,79.73 C223.67,79.73 223.48,81.07 223.48,81.07 C223.48,81.07 223.10,84.11 223.10,84.11 C223.10,84.11 222.91,84.97 222.91,84.97" fill="none" stroke="rgb(0, 0, 0)" stroke-width="5.90" stroke-opacity="1.00" stroke-linejoin="round"/>
<path d="M227.86,54.30 C227.86,54.30 227.86,53.63 227.86,53.63 C227.86,53.63 228.81,51.92 228.81,51.92 C228.81,51.92 229.48,50.58 229.48,50.58 C229.48,50.58 232.34,47.15 232.34,47.15 C232.34,47.15 234.43,45.53 234.43,45.53 C234.43,45.53 235.77,44.49 235.77,44.49 C236.15,44.44 238.66,44.23 239.67,44.58 C240.74,44.96 243.17,46.02 243.39,46.39 C243.39,46.39 246.53,49.06 246.53,49.06 C246.53,49.06 249.58,54.20 249.58,54.20 C250.04,54.60 250.61,57.31 250.82,57.63 C250.92,57.83 250.91,62.97 250.91,62.97 C250.92,63.33 248.75,68.23 246.91,71.06 C243.83,75.26 240.84,76.81 240.72,76.78 C240.72,76.78 237.48,77.92 237.48,77.92 C237.48,77.92 235.01,78.11 235.01,78.11 C235.01,78.11 233.10,78.30 233.10,78.30 C233.10,78.30 231.96,77.83 231.96,77.83 C231.96,77.83 230.91,77.07 230.91,77.07 C230.91,77.07 229.39,75.92 229.39,75.92 C229.39,75.92 227.77,73.83 227.77,73.83 C227.77,73.83 227.67,72.68 227.67,72.68 C227.67,72.68 227.48,70.11 227.48,70.11" fill="none" stroke="rgb(0, 0, 0)" stroke-width="5.90" stroke-opacity="1.00" stroke-linejoin="round"/>
<path d="M271.68,80.97 C271.68,80.97 271.49,79.35 271.49,79.35 C270.55,77.43 269.66,70.66 269.20,53.44 C269.20,53.44 269.78,52.49 269.78,52.49 C269.78,52.49 271.20,52.01 271.20,52.01 C271.20,52.01 272.16,51.63 272.16,51.63 C272.16,51.63 276.16,49.34 276.16,49.34 C276.35,49.37 278.87,48.77 279.78,48.58 C280.57,48.29 283.99,47.44 292.07,47.44" fill="none" stroke="rgb(0, 0, 0)" stroke-width="5.90" stroke-opacity="1.00" stroke-linejoin="round"/>
<path d="M305.97,47.63 C305.97,47.63 306.26,47.63 306.26,47.63 C306.26,47.63 307.40,46.87 307.40,46.87 C307.40,46.87 321.12,46.87 321.12,46.87 C321.12,46.87 322.45,47.73 322.45,47.73 C322.54,47.94 324.91,50.18 325.60,51.15 C325.79,51.54 328.23,57.16 328.27,57.25 C328.45,57.74 329.03,64.59 329.03,69.25 C329.03,69.25 328.08,73.64 328.08,73.64 C328.08,73.64 327.31,75.54 327.31,75.54 C327.31,75.54 326.46,77.45 326.46,77.45 C326.46,77.45 323.98,81.07 323.98,81.07 C323.98,81.07 322.26,82.50 322.26,82.50 C322.26,82.50 320.74,83.07 320.74,83.07 C320.74,83.07 318.26,83.26 318.26,83.26 C318.26,83.26 311.98,81.73 311.98,81.73 C311.98,81.73 310.64,80.78 310.64,80.78 C310.64,80.78 308.45,79.16 308.45,79.16 C308.45,79.16 306.55,76.68 306.55,76.68 C306.55,76.68 305.97,75.73 305.97,75.73 C305.97,75.73 305.21,74.02 305.21,74.02 C305.21,74.02 305.21,69.25 305.21,69.25 C305.21,69.25 306.45,66.59 306.45,66.59 C306.45,66.59 309.88,63.44 309.88,63.44 C309.88,63.44 311.60,62.68 311.60,62.68 C311.60,62.68 313.88,61.54 313.88,61.54 C313.88,61.54 319.79,60.97 319.79,60.97 C319.79,60.97 320.93,61.16 320.93,61.16 C320.93,61.16 321.88,61.54 321.88,61.54 C321.88,61.54 324.74,62.11 324.74,62.11 C324.74,62.11 325.79,62.97 325.79,62.97 C325.79,62.97 326.36,64.11 326.36,64.11 C326.36,64.11 327.12,65.82 327.12,65.82 C327.12,65.82 327.50,66.78 327.50,66.78 C327.50,66.78 327.88,68.11 327.88,68.11 C327.88,68.11 329.03,78.59 329.03,78.59 C329.03,78.59 329.60,80.69 329.60,80.69 C329.60,80.69 329.98,82.02 329.98,82.02 C329.98,82.02 330.84,83.07 330.84,83.07 C330.84,83.07 334.55,83.26 334.55,83.26" fill="none" stroke="rgb(0, 0, 0)" stroke-width="5.90" stroke-opacity="1.00" stroke-linejoin="round"/>
<path d="M343.70,46.30 C343.70,74.60 344.24,75.81 343.89,82.78 C343.88,82.85 343.48,84.41 343.51,84.69 C343.52,81.77 344.65,75.96 344.65,73.64 C344.65,68.02 344.65,61.60 345.22,57.06 C345.36,55.97 345.95,53.03 346.27,52.49 C346.27,52.49 350.65,49.15 350.65,49.15 C350.65,49.15 352.18,48.58 352.18,48.58 C352.18,48.58 353.70,47.82 353.70,47.82 C353.70,47.82 355.03,47.44 355.03,47.44 C355.03,47.44 358.46,47.06 358.46,47.06 C358.46,47.06 360.75,48.01 360.75,48.01 C360.75,48.01 361.61,48.39 361.61,48.39" fill="none" stroke="rgb(0, 0, 0)" stroke-width="5.90" stroke-opacity="1.00" stroke-linejoin="round"/>
<path d="M373.04,44.96 C373.04,44.96 373.04,46.20 373.04,46.20 C373.04,46.20 373.61,47.53 373.61,47.53 C373.54,47.97 374.65,52.02 375.80,55.25 C375.97,55.72 378.15,59.50 381.52,65.35 C383.29,68.14 386.76,76.47 386.76,76.49 C386.76,76.49 386.95,76.78 386.95,76.78" fill="none" stroke="rgb(0, 0, 0)" stroke-width="5.90" stroke-opacity="1.00" stroke-linejoin="round"/>
<path d="M400.85,45.53 C400.85,45.53 400.85,46.20 400.85,46.20 C400.85,46.20 397.61,50.58 397.61,50.58 C397.61,50.58 396.47,52.49 396.47,52.49 C396.47,52.49 394.38,58.97 394.38,58.97 C394.38,58.97 393.99,60.30 393.99,60.30 C393.99,60.30 393.23,64.30 393.23,64.30 C393.23,64.30 392.47,69.25 392.47,69.25 C392.47,69.25 390.18,75.73 390.18,75.73 C390.18,75.73 389.42,77.26 389.42,77.26 C389.42,77.26 388.47,78.78 388.47,78.78 C388.47,78.78 387.90,80.30 387.90,80.30 C387.90,80.30 387.52,81.26 387.52,81.26 C387.52,81.26 386.95,82.78 386.95,82.78 C386.95,82.78 386.56,83.92 386.56,83.92 C386.56,83.92 385.99,85.26 385.99,85.26 C385.99,85.26 385.23,86.97 385.23,86.97 C385.23,86.97 383.14,91.54 383.14,91.54 C383.14,91.54 382.56,92.50 382.56,92.50 C382.56,92.50 381.80,94.02 381.80,94.02 C381.80,94.02 379.90,98.21 379.90,98.21 C379.90,98.21 378.85,98.21 378.85,98.21 C378.85,98.21 365.70,84.69 365.70,84.69 C365.70,84.69 364.94,83.73 364.94,83.73 C364.94,83.73 364.85,83.45 364.85,83.45" fill="none" stroke="rgb(0, 0, 0)" stroke-width="5.90" stroke-opacity="1.00" stroke-linejoin="round"/>
<path d="M19.75,110.75 C19.90,115.94 21.77,124.92 22.75,126.12 C23.07,126.48 23.57,126.51 24.62,126.50 C25.02,126.10 30.22,120.62 30.00,117.88 C30.00,117.88 31.12,115.38 31.12,115.38 C31.67,115.32 31.97,116.63 32.00,116.75 C32.77,119.05 34.25,125.03 34.25,125.12 C34.35,126.91 35.64,127.95 36.62,128.00 C39.70,124.82 41.58,116.97 41.50,116.62 C41.50,116.62 41.75,115.62 41.75,115.62 C41.75,115.62 42.25,114.62 42.25,114.62 C42.25,114.62 43.75,113.12 43.75,113.12 C43.75,113.12 44.38,112.00 44.38,112.00 C44.38,112.00 44.75,112.50 44.75,112.50" fill="none" stroke="rgb(0, 0, 0)" stroke-width="5.90" stroke-opacity="1.00" stroke-linejoin="round"/>
<path d="M51.50,116.75 C51.50,116.75 51.50,116.88 51.50,116.88 C51.50,116.88 52.62,117.50 52.62,117.50 C53.00,117.50 57.22,119.06 61.38,117.62 C61.97,117.41 63.32,115.90 63.50,115.62 C63.50,115.62 63.38,111.62 63.38,111.62 C63.18,111.58 57.90,109.80 56.62,110.75 C53.60,113.27 50.56,116.75 50.50,119.62 C50.45,123.25 51.06,124.30 51.12,124.38 C52.64,126.11 56.88,128.30 57.00,128.38 C59.40,129.93 63.78,128.14 66.25,126.62 C66.25,126.62 66.75,125.62 66.75,125.62 C66.75,125.62 67.25,124.38 67.25,124.38 C67.25,124.38 67.00,124.25 67.00,124.25" fill="none" stroke="rgb(0, 0, 0)" stroke-width="5.90" stroke-opacity="1.00" stroke-linejoin="round"/>
<path d="M72.75,98.00 C72.75,98.00 72.50,98.12 72.50,98.12 C72.51,98.85 73.04,112.26 73.00,113.25 C72.96,114.13 73.25,123.91 73.75,124.38 C73.75,124.38 73.75,125.62 73.75,125.62 C73.75,125.62 74.00,125.25 74.00,125.25" fill="none" stroke="rgb(0, 0, 0)" stroke-width="5.90" stroke-opacity="1.00" stroke-linejoin="round"/>
<path d="M73.50,115.50 C73.50,115.50 73.50,115.12 73.50,115.12 C73.50,115.12 74.62,114.75 74.62,114.75 C75.73,114.00 78.81,113.62 80.75,113.50 C88.03,113.51 89.27,114.91 89.38,115.00 C89.38,115.00 90.00,115.88 90.00,115.88 C90.22,119.86 90.32,121.20 89.75,122.12 C89.59,122.38 89.19,122.99 89.25,123.12 C88.97,123.37 86.44,125.31 86.12,125.50 C83.12,126.95 79.10,127.05 78.88,127.50 C77.89,127.49 76.07,127.45 75.62,127.00 C75.36,126.71 74.55,125.68 74.25,125.38 C74.25,125.38 75.25,125.25 75.25,125.25" fill="none" stroke="rgb(0, 0, 0)" stroke-width="5.90" stroke-opacity="1.00" stroke-linejoin="round"/>
<path d="M108.00,114.00 C108.00,114.00 108.00,113.62 108.00,113.62 C106.50,111.83 105.98,111.52 105.88,111.50 C103.85,111.20 103.59,111.26 101.50,112.75 C98.53,115.08 97.23,116.97 97.12,117.38 C96.81,118.81 96.13,122.76 96.38,123.62 C96.94,125.47 97.94,125.77 98.12,125.75 C98.12,125.75 100.38,126.00 100.38,126.00 C100.38,126.00 101.75,124.88 101.75,124.88 C101.75,124.88 103.62,123.00 103.62,123.00 C103.74,122.77 105.66,119.27 105.75,119.12 C106.01,118.62 105.99,117.25 106.00,115.62 C106.00,115.62 106.25,114.62 106.25,114.62 C106.91,114.58 106.96,114.96 107.00,115.12 C109.07,123.03 111.02,125.36 111.50,125.50" fill="none" stroke="rgb(0, 0, 0)" stroke-width="5.90" stroke-opacity="1.00" stroke-linejoin="round"/>
<path d="M119.00,112.25 C119.00,112.25 119.25,112.38 119.25,112.38 C119.22,113.06 119.47,119.99 119.25,121.50 C119.03,122.99 116.25,134.92 116.25,137.25" fill="none" stroke="rgb(0, 0, 0)" stroke-width="5.90" stroke-opacity="1.00" stroke-linejoin="round"/>
<path d="M118.25,113.50 C118.25,113.50 118.25,113.38 118.25,113.38 C119.02,112.59 119.16,112.47 119.62,112.50 C120.27,112.54 123.73,113.04 123.88,113.00 C124.08,113.11 127.05,114.10 128.12,115.12 C128.28,115.27 128.94,115.82 129.12,116.00 C129.12,116.00 129.50,117.88 129.50,117.88 C129.50,117.88 127.88,120.50 127.88,120.50 C127.78,120.51 126.44,121.79 125.75,122.12 C122.06,123.81 118.12,123.75 117.88,123.75 C117.88,123.75 118.25,123.25 118.25,123.25" fill="none" stroke="rgb(0, 0, 0)" stroke-width="5.90" stroke-opacity="1.00" stroke-linejoin="round"/>
<path d="M138.50,111.75 C138.50,111.75 138.50,112.88 138.50,112.88 C138.83,113.25 139.16,137.65 138.12,139.00 C138.12,139.00 138.00,138.50 138.00,138.50" fill="none" stroke="rgb(0, 0, 0)" stroke-width="5.90" stroke-opacity="1.00" stroke-linejoin="round"/>
<path d="M136.50,113.50 C136.50,113.50 136.50,113.12 136.50,113.12 C136.50,113.12 137.38,112.25 137.38,112.25 C137.38,112.25 138.88,111.25 138.88,111.25 C138.99,111.29 140.38,110.88 140.88,110.75 C141.79,110.52 144.24,111.04 144.38,111.00 C144.59,111.24 147.67,112.39 148.12,112.75 C148.27,112.87 149.22,113.49 149.38,113.88 C149.38,113.88 150.50,117.12 150.50,117.12 C148.05,119.42 145.67,120.51 144.12,120.75 C143.97,120.77 138.99,120.75 137.75,120.75" fill="none" stroke="rgb(0, 0, 0)" stroke-width="5.90" stroke-opacity="1.00" stroke-linejoin="round"/>
<path d="M166.50,118.00 C168.20,118.02 171.51,119.05 173.62,118.50 C175.65,117.96 176.53,117.14 177.38,116.88 C177.49,116.53 178.65,115.67 179.38,114.62 C179.52,114.40 180.57,111.85 180.38,111.12 C180.38,111.12 179.12,110.50 179.12,110.50 C179.12,110.50 176.62,109.00 176.62,109.00 C176.13,109.03 172.87,107.97 170.88,108.25 C169.26,108.50 165.79,111.29 165.75,111.38 C165.59,111.75 163.47,114.60 163.50,115.62 C163.52,116.29 163.23,121.24 164.00,122.38 C164.17,122.62 164.58,123.23 164.62,123.25 C164.62,123.25 165.62,124.00 165.62,124.00 C166.02,124.01 168.84,124.68 169.88,124.75 C174.08,125.05 178.51,123.96 178.62,124.00 C178.62,124.00 179.62,123.25 179.62,123.25 C179.62,123.25 181.50,123.25 181.50,123.25" fill="none" stroke="rgb(0, 0, 0)" stroke-width="5.90" stroke-opacity="1.00" stroke-linejoin="round"/>
<path d="M198.50,113.00 C198.50,113.00 198.62,113.00 198.62,113.00 C198.62,113.00 199.50,110.88 199.50,110.88 C199.50,110.88 198.12,109.50 198.12,109.50 C198.12,109.50 192.88,108.25 192.88,108.25 C191.87,109.47 188.36,111.81 188.00,113.88 C187.89,114.50 187.47,114.88 187.50,115.38 C187.01,116.44 186.77,118.31 187.25,120.12 C187.81,122.13 190.76,124.39 191.12,124.75 C191.12,124.75 193.12,125.25 193.12,125.25 C193.12,125.25 197.38,119.75 197.38,119.75 C198.02,119.19 198.50,113.56 198.75,109.62 C198.68,102.59 199.54,100.77 199.50,100.62 C199.50,100.62 199.75,97.12 199.75,97.12 C199.75,97.12 199.50,95.88 199.50,95.88 C199.50,95.88 199.25,94.88 199.25,94.88 C199.25,100.81 199.25,107.47 199.75,110.62 C200.06,112.38 202.11,117.79 202.50,118.12 C202.50,118.12 202.75,119.38 202.75,119.38 C202.75,119.38 203.50,120.62 203.50,120.62 C203.50,120.62 204.00,121.25 204.00,121.25" fill="none" stroke="rgb(0, 0, 0)" stroke-width="5.90" stroke-opacity="1.00" stroke-linejoin="round"/>
<path d="M211.75,108.25 C211.75,108.25 212.00,123.62 212.00,123.62 C212.00,123.62 212.00,123.50 212.00,123.50" fill="none" stroke="rgb(0, 0, 0)" stroke-width="5.90" stroke-opacity="1.00" stroke-linejoin="round"/>
<path d="M210.75,99.50 C210.75,99.50 211.12,100.62 211.12,100.62 C211.12,100.62 211.75,101.00 211.75,101.00" fill="none" stroke="rgb(0, 0, 0)" stroke-width="5.90" stroke-opacity="1.00" stroke-linejoin="round"/>
<path d="M220.00,108.25 C220.00,108.25 233.75,108.00 233.75,108.00" fill="none" stroke="rgb(0, 0, 0)" stroke-width="5.90" stroke-opacity="1.00" stroke-linejoin="round"/>
<path d="M225.25,97.25 C225.23,98.31 226.57,104.56 226.88,112.50 C227.21,121.22 226.83,121.52 226.75,121.62 C226.75,121.62 226.75,122.50 226.75,122.50" fill="none" stroke="rgb(0, 0, 0)" stroke-width="5.90" stroke-opacity="1.00" stroke-linejoin="round"/>
<path d="M242.75,109.25 C242.75,109.28 241.51,116.04 241.50,116.25 C241.31,119.05 240.89,121.72 240.75,126.38 C240.75,126.38 240.75,125.25 240.75,125.25" fill="none" stroke="rgb(0, 0, 0)" stroke-width="5.90" stroke-opacity="1.00" stroke-linejoin="round"/>
<path d="M238.75,99.00" fill="none" stroke="rgb(0, 0, 0)" stroke-width="5.90" stroke-opacity="1.00" stroke-linejoin="round"/>
<path d="M258.25,109.25 C258.25,109.25 257.88,109.25 257.88,109.25 C257.73,109.51 254.01,114.10 253.75,116.00 C253.39,118.90 255.53,121.57 255.62,121.75 C255.62,121.75 258.38,122.00 258.38,122.00 C258.38,122.00 259.88,120.38 259.88,120.38 C259.88,120.38 262.25,117.12 262.25,117.12 C262.25,117.12 262.50,116.12 262.50,116.12 C263.35,114.34 262.02,112.21 261.88,111.88 C261.88,111.88 259.88,109.88 259.88,109.88 C259.88,109.88 255.88,108.75 255.88,108.75 C255.88,108.75 254.12,110.00 254.12,110.00 C254.12,110.00 254.50,111.00 254.50,111.00" fill="none" stroke="rgb(0, 0, 0)" stroke-width="5.90" stroke-opacity="1.00" stroke-linejoin="round"/>
<path d="M272.25,110.25 C272.25,110.25 272.50,110.38 272.50,110.38 C272.50,110.38 272.00,115.88 272.00,115.88 C272.04,116.04 270.30,120.96 270.25,121.50 C270.22,121.82 270.26,124.01 270.25,124.12 C270.25,124.12 270.25,121.62 270.25,121.62 C270.25,121.62 271.75,116.88 271.75,116.88 C271.75,116.88 272.00,115.12 272.00,115.12 C272.00,115.12 273.50,111.88 273.50,111.88 C273.50,111.88 274.38,111.25 274.38,111.25 C275.08,110.91 279.38,110.16 280.50,110.62 C283.75,111.93 286.38,114.05 286.50,114.12 C286.47,114.52 287.34,116.92 288.25,121.12 C288.52,122.44 288.49,124.31 288.50,124.75" fill="none" stroke="rgb(0, 0, 0)" stroke-width="5.90" stroke-opacity="1.00" stroke-linejoin="round"/>
<path d="M20.80,146.85 C20.80,146.85 21.11,147.00 21.11,147.00 C21.11,147.00 21.89,148.71 21.89,148.71 C23.24,150.46 23.85,155.97 23.91,156.32 C25.07,161.54 23.92,168.55 23.91,172.31" fill="none" stroke="rgb(0, 0, 0)" stroke-width="5.90" stroke-opacity="1.00" stroke-linejoin="round"/>
<path d="M21.73,148.71 C21.73,148.71 22.20,148.71 22.20,148.71 C26.80,148.43 29.38,148.32 31.20,148.71 C33.94,149.37 36.55,151.25 36.79,151.35 C36.79,151.35 37.57,155.39 37.57,155.39 C37.57,155.39 34.93,157.40 34.93,157.40 C34.45,157.78 26.77,157.71 26.23,157.71 C26.01,157.67 25.45,157.36 24.99,157.40 C24.99,157.40 26.70,156.78 26.70,156.78" fill="none" stroke="rgb(0, 0, 0)" stroke-width="5.90" stroke-opacity="1.00" stroke-linejoin="round"/>
<path d="M48.43,141.26 C48.43,141.26 48.90,162.53 48.90,162.53 C48.90,162.53 49.67,162.06 49.67,162.06" fill="none" stroke="rgb(0, 0, 0)" stroke-width="5.90" stroke-opacity="1.00" stroke-linejoin="round"/>
<path d="M57.75,153.99 C57.75,153.99 57.75,153.83 57.75,153.83 C58.55,153.06 61.15,152.81 63.02,152.44 C64.31,152.28 70.73,152.13 71.87,152.13 C71.87,152.13 73.27,152.90 73.27,152.90 C73.15,155.98 72.28,157.43 70.63,159.73 C70.53,159.87 68.91,162.16 67.68,163.46 C67.68,163.46 86.93,163.30 86.93,163.30" fill="none" stroke="rgb(0, 0, 0)" stroke-width="5.90" stroke-opacity="1.00" stroke-linejoin="round"/>
<path d="M124.18,152.44 C124.18,152.44 124.34,152.44 124.34,152.44 C124.34,152.44 124.81,151.04 124.81,151.04 C124.81,151.04 125.12,148.56 125.12,148.56 C125.12,148.56 118.13,147.16 118.13,147.16 C118.13,147.16 114.56,150.73 114.56,150.73 C114.56,150.73 114.25,152.90 114.25,152.90 C114.25,152.90 121.39,160.66 121.39,160.66 C121.39,160.66 121.70,163.15 121.70,163.15 C121.70,163.15 118.75,164.85 118.75,164.85 C116.04,165.22 115.58,164.94 114.87,164.85 C113.50,164.67 110.48,162.71 109.90,162.22 C109.90,162.22 110.68,160.35 110.68,160.35 C110.68,160.35 111.46,160.20 111.46,160.20" fill="none" stroke="rgb(0, 0, 0)" stroke-width="5.90" stroke-opacity="1.00" stroke-linejoin="round"/>
<path d="M130.08,155.23 C130.08,155.23 130.86,155.23 130.86,155.23 C130.86,155.23 132.10,155.85 132.10,155.85 C133.38,156.12 135.46,156.75 135.83,156.78 C138.60,157.01 141.48,156.47 141.73,156.01 C141.94,155.50 143.12,154.53 143.12,153.52 C143.42,152.12 143.44,150.09 142.97,149.49 C142.06,148.43 139.35,147.47 138.00,147.47 C134.89,147.47 132.23,148.71 131.17,149.95 C130.76,150.45 128.73,152.40 128.53,153.52 C128.44,154.10 127.95,154.57 127.91,157.56 C127.90,158.61 129.19,161.18 131.95,162.84 C132.68,163.27 132.99,163.32 133.34,163.30 C134.91,164.13 138.36,164.21 139.55,164.23 C140.52,164.25 141.72,163.55 142.04,163.61 C142.04,163.61 144.99,161.13 144.99,161.13" fill="none" stroke="rgb(0, 0, 0)" stroke-width="5.90" stroke-opacity="1.00" stroke-linejoin="round"/>
<path d="M155.85,148.40 C155.84,152.73 155.08,156.47 154.61,158.80 C154.14,160.43 153.32,163.33 153.37,163.77 C155.84,158.86 155.85,154.83 160.66,152.28 C161.25,151.98 165.89,151.81 166.87,152.28 C167.57,153.37 169.36,157.14 169.51,159.42 C169.55,160.04 169.92,164.52 169.98,164.54 C169.98,164.54 170.44,164.54 170.44,164.54" fill="none" stroke="rgb(0, 0, 0)" stroke-width="5.90" stroke-opacity="1.00" stroke-linejoin="round"/>
<path d="M185.34,153.99 C185.34,153.99 185.34,153.21 185.34,153.21 C185.34,153.21 183.64,152.13 183.64,152.13 C178.67,152.13 175.63,153.04 175.10,153.37 C174.89,153.50 171.82,155.40 170.91,156.78 C170.27,157.80 170.53,161.04 171.53,161.75 C172.08,162.13 174.44,163.61 175.88,163.61 C176.87,163.61 178.08,162.51 178.51,161.91 C179.98,159.87 181.43,156.35 181.77,155.70 C182.29,154.71 183.22,136.94 183.17,136.76 C183.79,138.87 183.81,156.00 184.26,156.94 C184.43,157.27 186.12,162.79 186.43,163.15 C186.43,163.15 187.21,163.30 187.21,163.30" fill="none" stroke="rgb(0, 0, 0)" stroke-width="5.90" stroke-opacity="1.00" stroke-linejoin="round"/>
<path d="M211.11,134.74 C211.11,134.74 211.42,134.90 211.42,134.90 C211.42,136.79 211.44,141.68 211.42,141.73 C211.17,142.31 206.22,163.15 206.15,163.77 C206.07,163.99 205.79,164.56 205.84,165.01 C205.75,162.50 206.73,155.28 206.77,155.08 C207.55,151.55 208.40,149.69 208.32,149.49 C208.32,149.49 209.41,148.40 209.41,148.40 C209.41,148.40 211.89,148.40 211.89,148.40 C211.94,148.51 217.15,153.64 218.41,156.01 C221.14,161.15 221.71,162.98 221.67,163.15 C221.67,163.15 222.29,162.99 222.29,162.99" fill="none" stroke="rgb(0, 0, 0)" stroke-width="5.90" stroke-opacity="1.00" stroke-linejoin="round"/>
<path d="M226.95,155.85 C226.95,155.85 226.95,156.63 226.95,156.63 C226.95,156.63 227.72,157.40 227.72,157.40 C231.89,157.71 232.26,157.71 233.00,157.25 C233.22,157.09 235.08,156.69 235.48,156.16 C235.64,155.95 236.27,155.55 236.57,154.76 C237.40,152.45 236.19,150.98 236.11,150.88 C236.11,150.88 233.00,150.57 233.00,150.57 C232.72,150.90 228.66,154.85 228.50,155.85 C228.00,159.26 228.35,161.29 230.21,163.61 C230.96,164.68 231.30,164.97 231.45,165.32 C231.45,165.32 234.24,167.65 234.24,167.65 C234.24,167.65 236.42,167.96 236.42,167.96 C236.42,167.96 237.35,166.25 237.35,166.25 C237.35,166.25 239.68,162.22 239.68,162.22 C239.68,162.22 239.99,161.13 239.99,161.13" fill="none" stroke="rgb(0, 0, 0)" stroke-width="5.90" stroke-opacity="1.00" stroke-linejoin="round"/>
<path d="M244.33,138.15 C244.33,138.15 245.11,138.15 245.11,138.15 C246.03,142.64 245.87,146.56 246.51,150.11 C247.28,154.43 249.04,159.61 248.99,162.06" fill="none" stroke="rgb(0, 0, 0)" stroke-width="5.90" stroke-opacity="1.00" stroke-linejoin="round"/>
<path d="M256.13,153.68 C256.13,153.68 256.29,153.68 256.29,153.68 C256.29,153.68 260.17,174.01 260.17,174.01 C260.17,174.01 260.17,175.26 260.17,175.26 C260.17,175.26 260.48,174.79 260.48,174.79" fill="none" stroke="rgb(0, 0, 0)" stroke-width="5.90" stroke-opacity="1.00" stroke-linejoin="round"/>
<path d="M254.58,153.37 C254.58,153.37 254.58,152.28 254.58,152.28 C254.58,152.28 254.27,149.80 254.27,149.80 C254.27,149.80 255.35,149.02 255.35,149.02 C255.35,149.02 262.18,150.57 262.18,150.57 C262.18,150.57 266.53,152.90 266.53,152.90 C266.53,152.90 268.86,156.32 268.86,156.32 C268.83,156.93 269.50,161.24 261.10,160.82" fill="none" stroke="rgb(0, 0, 0)" stroke-width="5.90" stroke-opacity="1.00" stroke-linejoin="round"/>
<path d="M13.20,137.98 C13.20,137.98 13.84,137.98 13.84,137.98 C13.95,140.01 14.11,143.17 13.63,144.58 C12.66,147.16 12.90,154.65 13.20,155.87 C13.65,158.56 14.07,159.67 14.05,159.91 C14.05,159.91 14.91,161.62 14.91,161.62 C14.91,161.62 15.97,163.75 15.97,163.75 C15.97,163.75 19.38,167.37 19.38,167.37 C19.38,167.37 19.59,167.37 19.59,167.37" fill="none" stroke="rgb(0, 0, 0)" stroke-width="5.90" stroke-opacity="1.00" stroke-linejoin="round"/>
<path d="M275.11,143.94 C275.11,143.94 276.60,143.94 276.60,143.94 C278.27,145.63 278.36,145.68 281.29,150.76 C283.90,155.26 284.07,156.42 285.55,159.91 C286.65,162.57 286.60,167.74 286.61,170.14 C286.61,170.14 283.42,173.76 283.42,173.76 C283.42,173.76 281.71,174.61 281.71,174.61 C281.71,174.61 281.08,174.61 281.08,174.61" fill="none" stroke="rgb(0, 0, 0)" stroke-width="5.90" stroke-opacity="1.00" stroke-linejoin="round"/>
</g>
</svg>
